<?xml version="1.0" standalone="no"?><!DOCTYPE svg PUBLIC "-//W3C//DTD SVG 1.1//EN" "http://www.w3.org/Graphics/SVG/1.1/DTD/svg11.dtd"><svg t="1572548267542" class="icon" viewBox="0 0 1024 1024" version="1.1" xmlns="http://www.w3.org/2000/svg" p-id="11790" xmlns:xlink="http://www.w3.org/1999/xlink" width="500" height="500"><defs><style type="text/css"></style></defs><path d="M512 0C230.4 0 0 230.4 0 512s230.4 512 512 512 512-230.4 512-512S793.6 0 512 0z m0 786.294154c-29.262769 0-54.862769-25.6-54.862769-54.862769s25.6-54.862769 54.862769-54.86277 54.862769 25.6 54.862769 54.86277-25.6 54.862769-54.862769 54.862769z m47.537231-212.125539c0 36.568615-14.631385 65.831385-47.537231 65.831385-32.905846 0-47.537231-29.262769-47.537231-65.831385l-18.294154-270.631384c0-36.568615 29.262769-65.831385 62.168616-65.831385 32.925538 0 65.831385 29.262769 65.831384 65.831385l-14.631384 270.631384z" fill="#d81e06" p-id="11791"></path></svg>