<?xml version="1.0" standalone="no"?><!DOCTYPE svg PUBLIC "-//W3C//DTD SVG 1.1//EN" "http://www.w3.org/Graphics/SVG/1.1/DTD/svg11.dtd"><svg t="1573510212612" class="icon" viewBox="0 0 1024 1024" version="1.1" xmlns="http://www.w3.org/2000/svg" p-id="7408" xmlns:xlink="http://www.w3.org/1999/xlink" width="64" height="64"><defs><style type="text/css"></style></defs><path d="M998.98821 9.812083A56.856858 56.856858 0 0 0 945.991434 4.052677L511.998418 177.694934 78.000283 4.052677A56.93877 56.93877 0 0 0 24.97791 9.812083a56.826141 56.826141 0 0 0-24.972785 47.109383v728.157887c0 23.283359 14.170699 44.160567 35.718557 52.827833l454.138139 181.654232s9.343037 3.000011 11.063179 3.332776c3.691139 0.726965 7.377159 1.105806 11.073418 1.105806 3.696259 0 7.36692-0.378841 11.027343-1.100687 1.720143-0.332766 11.05806-3.460763 11.05806-3.460763l454.081824-181.546722a56.877336 56.877336 0 0 0 35.826067-52.827834V56.921466a56.867097 56.867097 0 0 0-25.003502-47.109383z m-30.6554 773.608561l-413.668711 164.698539V240.603008l413.668711-164.719017v707.536653z m-78.722124-233.289228l-227.606613 91.121485v61.423427l227.606613-91.101007v-61.443905z m0-236.299478L662.004073 404.851034v59.524103l227.606613-91.019096V313.831938zM477.636521 951.73865l-416.627766-165.27704V78.884001l416.627766 165.338474v707.516175zM359.842586 417.363024L132.235972 326.246658v61.438786l227.606614 91.121485V417.363024z m0 238.21928L132.235972 564.578566v59.498506l227.606614 91.049813v-59.544581z" p-id="7409" fill="#1296db"></path></svg>