<?xml version="1.0" standalone="no"?><!DOCTYPE svg PUBLIC "-//W3C//DTD SVG 1.1//EN" "http://www.w3.org/Graphics/SVG/1.1/DTD/svg11.dtd"><svg t="1573510144140" class="icon" viewBox="0 0 1024 1024" version="1.1" xmlns="http://www.w3.org/2000/svg" p-id="6304" xmlns:xlink="http://www.w3.org/1999/xlink" width="64" height="64"><defs><style type="text/css"></style></defs><path d="M539.519262 638.555347l-61.123103 0c-1.715061 0-3.106758 1.39272-3.106758 3.107781l0 60.72299c0 1.715061 1.391696 3.107781 3.106758 3.107781l61.123103 0c1.718131 0 3.105734-1.39272 3.105734-3.107781l0-60.72299C542.62602 639.948067 541.237393 638.555347 539.519262 638.555347M949.50382 121.767298l0-0.292666c-0.201591-26.433022-21.8701-47.942919-48.301076-47.942919-10.962679 0-21.648043 3.78521-30.231535 10.689457l-104.83158 80.350003L251.772722 164.571173 147.468145 84.640726c-8.665357-7.176446-19.510356-11.107989-30.756491-11.107989-26.181289 0-47.842635 21.307282-48.28675 47.496757l-0.00614 0.321318 0 0.320295-0.01842 724.860992c0 48.00534 39.056528 87.058798 87.060845 87.058798l706.994066 0c48.001247 0 87.057775-39.053458 87.057775-87.058798L949.50382 121.767298zM862.454232 895.476835 155.461189 895.476835c-27.033703 0-48.944735-21.911032-48.944735-48.944735l0.016373-724.857922c0.092098-5.554506 4.603855-10.026354 10.178827-10.026354 2.625804 0 4.992711 1.020236 6.801916 2.648316l115.334795 88.38705 540.216645 0L894.637212 114.101711c1.778506-1.508353 4.052293-2.452865 6.565533-2.452865 5.604648 0 10.146081 4.52506 10.190083 10.119475l0.00614 724.764801C911.398968 873.565802 889.485889 895.476835 862.454232 895.476835M828.429301 447.64325l-56.738235 0 0 0.016373c-1.214664 0.069585-2.307555 0.778736-2.869351 1.89721l-24.498974 48.433082c-0.553609 1.092891-0.506537 2.409886 0.118704 3.464915 0.62217 1.056052 1.743714 1.696642 2.947122 1.696642l19.164478 0 0 199.459774c0 1.595334 1.288343 2.883677 2.87856 2.883677l58.997696 0c1.593288 0 2.880607-1.289366 2.880607-2.883677L831.309908 450.52488C831.310931 448.935686 830.022589 447.64325 828.429301 447.64325M721.958384 447.64325l-56.740282 0 0 0.016373c-1.214664 0.069585-2.307555 0.778736-2.871397 1.89721l-24.495904 48.433082c-0.552585 1.092891-0.512676 2.409886 0.113587 3.464915 0.62831 1.056052 1.743714 1.696642 2.952238 1.696642l19.158339 0 0 199.459774c0 1.595334 1.292436 2.883677 2.885723 2.883677l58.996672 0c1.589195 0 2.879584-1.289366 2.879584-2.883677L724.836945 450.52488C724.837968 448.935686 723.546555 447.64325 721.958384 447.64325M348.463901 447.64325l-56.740282 0 0 0.016373c-1.213641 0.069585-2.308579 0.778736-2.871397 1.89721l-24.495904 48.433082c-0.553609 1.092891-0.511653 2.409886 0.116657 3.464915 0.627287 1.056052 1.741667 1.696642 2.949168 1.696642l19.159362 0 0 199.459774c0 1.595334 1.291412 2.883677 2.885723 2.883677l58.996672 0c1.589195 0 2.879584-1.289366 2.879584-2.883677L351.343485 450.52488C351.343485 448.935686 350.053096 447.64325 348.463901 447.64325M241.986845 447.64325l-56.736189 0 0 0.016373c-1.212618 0.069585-2.307555 0.778736-2.869351 1.89721l-24.498974 48.433082c-0.552585 1.092891-0.511653 2.409886 0.116657 3.464915 0.623193 1.056052 1.744737 1.696642 2.947122 1.696642l19.164478 0 0 199.459774c0 1.595334 1.289366 2.883677 2.88163 2.883677l58.994626 0c1.592264 0 2.882654-1.289366 2.882654-2.883677L244.869498 450.52488C244.869498 448.935686 243.579109 447.64325 241.986845 447.64325" p-id="6305" fill="#ffd300"></path></svg>