<?xml version="1.0" standalone="no"?><!DOCTYPE svg PUBLIC "-//W3C//DTD SVG 1.1//EN" "http://www.w3.org/Graphics/SVG/1.1/DTD/svg11.dtd"><svg t="1572730015598" class="icon" viewBox="0 0 1024 1024" version="1.1" xmlns="http://www.w3.org/2000/svg" p-id="41977" xmlns:xlink="http://www.w3.org/1999/xlink" width="128" height="128"><defs><style type="text/css"></style></defs><path d="M734.53112889 35.48046222c-87.96387555 0-169.51978667 44.27320889-223.69621334 117.09098667-53.59388445-72.81777778-135.73233778-117.09098667-223.69621333-117.09098667-158.45148445 0-287.19331555 140.97521778-287.19331555 313.99025778 0 103.10997333 46.02083555 175.92775111 83.30353778 234.18197333C191.01923555 753.17248 462.48391111 963.47022222 474.13475555 972.20835555c11.06830222 8.73813333 23.88423111 12.81592889 36.70016 12.8159289s25.63185778-4.07779555 36.70016-12.8159289c11.65084445-8.73813333 282.53297778-219.61841778 390.88583112-388.55566222 37.28270222-58.25422222 83.30353778-131.072 83.30353778-234.18197333 0-173.01504-128.74183111-313.99025778-287.19331556-313.99025778zM864.43804445 581.90506667c-99.61472 139.81013333-310.49500445 299.42670222-320.98076445 306.99975111-9.90321778 7.57304889-21.55406222 11.65084445-32.62236445 11.65084444-11.65084445 0-22.71914667-3.49525333-32.62236444-11.65084444-10.48576-7.57304889-217.28824889-168.93724445-320.98076444-312.82517333-33.20490667-52.4288-86.21624889-117.67352889-86.21624889-209.7152 0-154.95623111 86.21624889-263.89162667 227.77400889-263.89162667 78.6432 0 164.27690667 75.14794667 212.04536888 140.39267555 48.35100445-65.24472889 133.40216889-140.39267555 212.0453689-140.39267555 142.14030222 0 234.18197333 108.93539555 234.18197333 263.89162667 0 92.04167111-58.83676445 163.69436445-92.62421333 215.54062222z" fill="#afafaf" p-id="41978"></path></svg>