<?xml version="1.0" standalone="no"?><!DOCTYPE svg PUBLIC "-//W3C//DTD SVG 1.1//EN" "http://www.w3.org/Graphics/SVG/1.1/DTD/svg11.dtd"><svg t="1572719689157" class="icon" viewBox="0 0 1025 1024" version="1.1" xmlns="http://www.w3.org/2000/svg" p-id="28520" xmlns:xlink="http://www.w3.org/1999/xlink" width="128.125" height="128"><defs><style type="text/css"></style></defs><path d="M622.770461 756.51364c53.927051-25.684421 91.890876-78.997502 96.495653-141.417808l-68.048366 0C649.989807 671.376436 639.449985 720.494054 622.770461 756.51364z" p-id="28521" fill="#ffd300"></path><path d="M549.605676 773.193165c33.666034 0 54.64335-79.304487 56.996902-158.097332L492.097132 615.095833C494.553013 693.888678 516.041971 773.193165 549.605676 773.193165z" p-id="28522" fill="#ffd300"></path><path d="M379.84291 615.095833c4.707105 64.466873 45.331468 119.724193 102.32837 144.283002-18.623763-36.224243-30.903168-86.979115-32.131108-144.283002L379.84291 615.095833z" p-id="28523" fill="#ffd300"></path><path d="M512.255821 0C229.727191 0 0.61397 229.113221 0.61397 511.744179s229.113221 511.744179 511.744179 511.744179 511.744179-229.113221 511.744179-511.744179S794.886779 0 512.255821 0zM557.280304 819.036275c-1.432597 0.102328-2.762866 0.409313-4.195463 0.409313-0.511642 0-1.023284-0.102328-1.534926-0.204657-0.716299 0-1.330269 0.102328-2.046567 0.102328-113.686819 0-206.805636-87.90007-215.810533-199.233337 19.647047-9.209553 52.289797-24.558809 93.221145-46.047767l24.149495 0c0.306985-4.093135 1.023284-8.595583 1.432597-12.995703 13.916658-7.265314 28.549615-15.144599 43.694214-23.433197-1.637254 11.870091-2.967523 24.149495-3.581493 36.4289l113.482162 0c-1.739582-32.745078-7.060658-64.876187-15.04227-90.151294 6.549016-3.888478 13.20036-7.674628 19.851704-11.665434 5.218747-3.069851 9.823524-6.139702 14.837614-9.107225 12.58639 30.800839 21.386629 69.07165 24.354152 111.026282l67.639053 0c-8.288598-50.140901-38.475467-92.709503-80.430099-117.984611 15.553912-9.41421 29.675227-18.009793 42.773259-26.093734 52.187469 39.601079 86.058159 102.123713 86.058159 172.62796C766.132507 719.777756 673.320676 814.94314 557.280304 819.036275zM590.639352 423.332467C499.669431 478.282802 414.839213 521.977016 359.070251 549.605676l-88.616369 0-99.974818-101.816728 45.331468-15.656241 83.704607 31.824123 25.991406 12.995703c18.623763-14.632957 40.931348-31.824123 65.490157-50.140901l-108.263416-174.981513 0.102328-0.716299c-0.61397-6.446687-0.102328-13.098031 3.172179-19.44239 9.107225-17.702808 30.903168-24.763466 48.708304-15.758569l193.912261 97.211952c4.911762 2.455881 8.595583 6.139702 11.767763 10.232837 112.35655-70.606575 222.768862-120.031178 249.783552-63.852903C804.812631 290.203258 761.527731 320.18547 590.639352 423.332467z" p-id="28524" fill="#ffd300"></path></svg>