<?xml version="1.0" standalone="no"?><!DOCTYPE svg PUBLIC "-//W3C//DTD SVG 1.1//EN" "http://www.w3.org/Graphics/SVG/1.1/DTD/svg11.dtd"><svg t="1572598583036" class="icon" viewBox="0 0 1024 1024" version="1.1" xmlns="http://www.w3.org/2000/svg" p-id="12631" width="48" height="48" xmlns:xlink="http://www.w3.org/1999/xlink"><defs><style type="text/css"></style></defs><path d="M512 0C229.333 0 0 229.333 0 512s229.333 512 512 512 512-229.333 512-512S794.667 0 512 0z m210.987 713.173c-10.667 10.667-29.654 10.667-40.534 0L521.387 552.107 360.32 713.173c-10.667 10.667-29.653 10.667-40.533 0-10.667-10.666-10.667-29.653 0-40.533l161.066-161.067-160.426-160.426c-10.667-10.667-10.667-29.654 0-40.534 10.666-10.666 29.653-10.666 40.533 0L521.387 471.04l160.426-160.427c11.307-10.666 29.654-10.666 40.534 0 10.666 10.667 10.666 29.654 0 40.534L561.92 511.573 722.987 672.64c10.666 10.88 10.666 29.867 0 40.533z" p-id="12632" fill="#1296db"></path></svg>