<?xml version="1.0" standalone="no"?><!DOCTYPE svg PUBLIC "-//W3C//DTD SVG 1.1//EN" "http://www.w3.org/Graphics/SVG/1.1/DTD/svg11.dtd"><svg t="1572729607155" class="icon" viewBox="0 0 1024 1024" version="1.1" xmlns="http://www.w3.org/2000/svg" p-id="38971" xmlns:xlink="http://www.w3.org/1999/xlink" width="128" height="128"><defs><style type="text/css"></style></defs><path d="M183.78794477 108.72543763L48.9488384 310.92195935v121.2930579c32.43595093 52.44433445 65.24472889 76.92664225 98.05350685 76.92664225 33.92725902 0 68.10306939-26.22216723 102.0303284-82.51904759 8.94784853-14.78880522 30.1989888-15.03735657 39.51966437-0.62137836 36.4127725 56.5454317 70.58858288 83.01615028 101.28467436 83.01615027 30.6960915 0 65.12045322-26.59499425 101.90605274-83.14042595 9.19639988-14.16742685 29.82616178-14.16742685 39.02256166 0 36.78559952 56.5454317 71.20996125 83.14042595 101.78177707 83.14042595 30.57181582 0 64.37479917-26.47071858 100.29046898-82.8918746 9.07212421-14.29170252 29.82616178-14.41597819 39.14683734-0.37282703 37.28270222 56.66970738 72.20416663 83.26470163 103.39736082 83.26470163 30.07471312 0 63.13204243-24.73085915 98.05350684-77.29946927v-120.7959552L838.84502282 108.72543763H183.78794477z m-36.78559952 447.14387532c-53.31426418 0-100.29046898-36.28849683-141.4257171-105.13722027-2.11268645-3.60399455-3.3554432-7.70509179-3.3554432-11.93046471V303.83824592c0-4.59819995 1.36703242-9.07212421 3.97682157-12.9246701l145.65109001-218.35235934c4.34964859-6.46233505 11.55763769-10.43915662 19.38700516-10.43915663H851.27259022c7.82936747 0 15.03735657 3.8525459 19.38700516 10.43915663L1016.43496107 290.78930015c2.60978915 3.8525459 3.97682157 8.32647017 3.97682156 12.9246701V438.6773523c0 4.47392427-1.24275675 8.82357285-3.72827021 12.67611875-43.99358862 68.47589642-90.5969664 104.5158419-141.05289007 104.5158419-42.99938323 0-83.63752865-26.22216723-122.53581465-76.42953956-37.77980492 50.20737232-77.6722963 76.42953955-120.2988525 76.42953956s-82.76759893-26.22216723-121.41733357-76.55381523c-38.52545897 50.331648-78.79077737 76.55381523-121.54160925 76.55381523-42.50228053 0-82.39477191-25.97361588-120.42312817-75.68388552-36.53704818 49.58599395-77.1751936 75.68388551-122.41153896 75.68388552z m0 0" fill="#afafaf" p-id="38972"></path><path d="M876.62482773 523.80618903h43.24793458v330.20046602c0 60.8950803-49.33744261 110.35679858-110.35679858 110.35679858H218.21230649c-60.8950803 0-110.35679858-49.33744261-110.35679858-110.35679858V525.17322145h43.24793458v328.8334336c0 37.03415088 30.07471312 67.108864 67.108864 67.108864h591.30365724c37.03415088 0 67.108864-30.07471312 67.108864-67.108864V523.80618903z m0 0M322.97669973 245.30440343h371.58426549v56.04832902h-371.58426549z" fill="#afafaf" p-id="38973"></path></svg>